<?xml version="1.0" standalone="no"?><!DOCTYPE svg PUBLIC "-//W3C//DTD SVG 1.1//EN" "http://www.w3.org/Graphics/SVG/1.1/DTD/svg11.dtd"><svg t="1526458105199" class="icon" style="" viewBox="0 0 1024 1024" version="1.1" xmlns="http://www.w3.org/2000/svg" p-id="1092" xmlns:xlink="http://www.w3.org/1999/xlink" width="128" height="128"><defs><style type="text/css"></style></defs><path d="M487.4 892.6L120.6 650.8l319.2-484.2 284-31.7 82.8 273.5-319.2 484.2z m-297.5-256l283.3 186.7 278.7-422.8L688 189.2l-219.3 24.5-278.8 422.9z" fill="" p-id="1093"></path><path d="M558.3 470.7c-16.1 0-32.3-4.5-46.6-14-39.1-25.8-50-78.6-24.2-117.7 25.8-39.1 78.6-50 117.7-24.2 19 12.5 31.9 31.6 36.5 53.9s0.2 44.9-12.3 63.9c-16.3 24.6-43.4 38.1-71.1 38.1z m0.2-120c-11.4 0-22.6 5.5-29.3 15.7-10.6 16.1-6.2 37.9 10 48.5 16.1 10.6 37.9 6.2 48.5-10 5.1-7.8 6.9-17.1 5.1-26.3-1.9-9.2-7.2-17-15-22.2-6-3.8-12.7-5.7-19.3-5.7z" fill="" p-id="1094"></path><path d="M895.6 894.6H612.1v-50h233.6l0.5-297.6 50 0.1z" fill="" p-id="1095"></path></svg>